<svg width="17" height="20" viewBox="0 0 17 20" fill="none" xmlns="http://www.w3.org/2000/svg">
<path d="M10.8333 6.66711H16.2833C15.9924 5.89617 15.5404 5.19617 14.9575 4.61379L12.0542 1.70879C11.4711 1.12656 10.7709 0.674883 10 0.383789V5.83379C10 6.29398 10.3731 6.66711 10.8333 6.66711Z" fill="#5C3013"/>
<path d="M16.6466 8.33332H10.8333C9.45262 8.33332 8.33332 7.21402 8.33332 5.83332V0.02C8.19914 0.0108203 8.065 0 7.92914 0H4.16664C1.8666 0.00277344 0.00273437 1.86664 0 4.16668V15.8334C0.00273437 18.1334 1.8666 19.9973 4.16664 20H12.5C14.8 19.9973 16.6639 18.1334 16.6666 15.8333V8.7375C16.6666 8.60168 16.6558 8.4675 16.6466 8.33332Z" fill="#5C3013"/>
</svg>
