<svg width="17" height="20" viewBox="0 0 17 20" fill="none" xmlns="http://www.w3.org/2000/svg">
<path d="M10 5.83333V0.383333C10.7709 0.674446 11.4711 1.12609 12.0542 1.70833L14.9575 4.61333C15.5404 5.19573 15.9924 5.89575 16.2833 6.66667H10.8333C10.6123 6.66667 10.4004 6.57887 10.2441 6.42259C10.0878 6.26631 10 6.05435 10 5.83333ZM16.6667 8.7375V15.8333C16.6653 16.938 16.2259 17.997 15.4448 18.7782C14.6637 19.5593 13.6047 19.9987 12.5 20H4.16667C3.062 19.9987 2.00296 19.5593 1.22185 18.7782C0.440735 17.997 0.00132321 16.938 0 15.8333V4.16667C0.00132321 3.062 0.440735 2.00296 1.22185 1.22185C2.00296 0.440735 3.062 0.00132321 4.16667 0L7.92917 0C8.065 0 8.19917 0.0108333 8.33333 0.02V5.83333C8.33333 6.49637 8.59673 7.13226 9.06557 7.6011C9.53441 8.06994 10.1703 8.33333 10.8333 8.33333H16.6467C16.6558 8.4675 16.6667 8.60167 16.6667 8.7375ZM11.6667 14.1667C11.6667 13.9457 11.5789 13.7337 11.4226 13.5774C11.2663 13.4211 11.0543 13.3333 10.8333 13.3333H9.16667V11.6667C9.16667 11.4457 9.07887 11.2337 8.92259 11.0774C8.76631 10.9211 8.55435 10.8333 8.33333 10.8333C8.11232 10.8333 7.90036 10.9211 7.74408 11.0774C7.5878 11.2337 7.5 11.4457 7.5 11.6667V13.3333H5.83333C5.61232 13.3333 5.40036 13.4211 5.24408 13.5774C5.0878 13.7337 5 13.9457 5 14.1667C5 14.3877 5.0878 14.5996 5.24408 14.7559C5.40036 14.9122 5.61232 15 5.83333 15H7.5V16.6667C7.5 16.8877 7.5878 17.0996 7.74408 17.2559C7.90036 17.4122 8.11232 17.5 8.33333 17.5C8.55435 17.5 8.76631 17.4122 8.92259 17.2559C9.07887 17.0996 9.16667 16.8877 9.16667 16.6667V15H10.8333C11.0543 15 11.2663 14.9122 11.4226 14.7559C11.5789 14.5996 11.6667 14.3877 11.6667 14.1667Z" fill="#5C3013"/>
</svg>
