<svg width="30" height="32" viewBox="0 0 30 32" fill="none" xmlns="http://www.w3.org/2000/svg">
<path d="M29.4526 27.8957L23.6462 22.0429C27.9908 16.1931 26.8062 7.90222 21.0002 3.52476C15.1943 -0.852696 6.96562 0.340893 2.621 6.1907C-1.72362 12.0405 -0.538984 20.3314 5.26694 24.7088C9.93074 28.2252 16.3364 28.2252 21.0002 24.7088L26.8091 30.5616C27.5391 31.2971 28.7226 31.2971 29.4525 30.5616C30.1825 29.8261 30.1825 28.6336 29.4525 27.8982L29.4526 27.8957ZM13.182 23.5792C8.02196 23.5792 3.83898 19.3646 3.83898 14.1656C3.83898 8.96655 8.02196 4.75194 13.182 4.75194C18.342 4.75194 22.525 8.96655 22.525 14.1656C22.5195 19.3623 18.3397 23.5737 13.182 23.5792Z" fill="#5C3013"/>
</svg>
